<svg xmlns="http://www.w3.org/2000/svg" xmlns:xlink="http://www.w3.org/1999/xlink" viewBox="0 0 127.54 127.54"><defs><style>.a{fill:#fff;}.b,.c,.d,.f,.h,.j,.k,.l,.m,.n,.o,.p,.q,.r,.s,.t,.u,.w,.x,.z{opacity:0.85;}.b{fill:url(#a);}.c{fill:url(#b);}.d{fill:url(#c);}.e,.g,.i,.v,.y{opacity:0.9;}.e{fill:url(#d);}.f{fill:url(#e);}.g{fill:url(#f);}.h{fill:url(#g);}.i{fill:url(#h);}.j{fill:url(#i);}.k{fill:url(#j);}.l{fill:url(#k);}.m{fill:url(#l);}.n{fill:url(#m);}.o{fill:url(#n);}.p{fill:url(#o);}.q{fill:url(#p);}.r{fill:url(#q);}.s{fill:url(#r);}.t{fill:url(#s);}.u{fill:url(#t);}.v{fill:url(#u);}.w{fill:url(#v);}.x{fill:url(#w);}.y{fill:url(#x);}.z{fill:url(#y);}</style><linearGradient id="a" x1="156.9" y1="30.57" x2="25.33" y2="117.4" gradientUnits="userSpaceOnUse"><stop offset="0" stop-color="#fed900"/><stop offset="0.28" stop-color="#fdd600"/><stop offset="0.46" stop-color="#face00"/><stop offset="0.6" stop-color="#f4bf00"/><stop offset="0.73" stop-color="#edab00"/><stop offset="0.85" stop-color="#e39000"/><stop offset="0.96" stop-color="#d67000"/><stop offset="0.97" stop-color="#d46a00"/></linearGradient><linearGradient id="b" x1="137.24" y1="0.79" x2="5.68" y2="87.61" xlink:href="#a"/><linearGradient id="c" x1="145.41" y1="13.17" x2="13.85" y2="99.99" xlink:href="#a"/><linearGradient id="d" x1="51.21" y1="100.71" x2="163.9" y2="100.71" gradientUnits="userSpaceOnUse"><stop offset="0" stop-color="#ff3428"/><stop offset="0.2" stop-color="#f8342e"/><stop offset="0.51" stop-color="#e4333f"/><stop offset="0.87" stop-color="#c3325a"/><stop offset="1" stop-color="#b53266"/></linearGradient><linearGradient id="e" x1="168.83" y1="48.65" x2="37.26" y2="135.48" xlink:href="#a"/><linearGradient id="f" x1="51.21" y1="88.66" x2="163.9" y2="88.66" xlink:href="#d"/><linearGradient id="g" x1="165" y1="42.85" x2="33.44" y2="129.68" xlink:href="#a"/><linearGradient id="h" x1="51.21" y1="92.02" x2="163.9" y2="92.02" xlink:href="#d"/><linearGradient id="i" x1="19.06" y1="-1.83" x2="87.64" y2="7.55" gradientTransform="translate(23.18 21.68) rotate(8.45)" gradientUnits="userSpaceOnUse"><stop offset="0" stop-color="#55dad6"/><stop offset="1" stop-color="#2f54ff"/></linearGradient><linearGradient id="j" x1="147.27" y1="15.99" x2="15.71" y2="102.82" xlink:href="#a"/><linearGradient id="k" x1="15.82" y1="21.87" x2="84.4" y2="31.25" xlink:href="#i"/><linearGradient id="l" x1="149" y1="18.6" x2="17.43" y2="105.43" xlink:href="#a"/><linearGradient id="m" x1="8.19" y1="77.67" x2="76.77" y2="87.05" xlink:href="#i"/><linearGradient id="n" x1="140.14" y1="5.19" x2="8.58" y2="92.02" xlink:href="#a"/><linearGradient id="o" x1="15.46" y1="24.56" x2="84.03" y2="33.93" xlink:href="#i"/><linearGradient id="p" x1="146.98" y1="15.55" x2="15.42" y2="102.37" xlink:href="#a"/><linearGradient id="q" x1="12.34" y1="47.39" x2="80.91" y2="56.76" xlink:href="#i"/><linearGradient id="r" x1="152.42" y1="23.79" x2="20.85" y2="110.61" xlink:href="#a"/><linearGradient id="s" x1="9.54" y1="67.8" x2="78.12" y2="77.18" xlink:href="#i"/><linearGradient id="t" x1="156.68" y1="30.25" x2="25.12" y2="117.08" xlink:href="#a"/><linearGradient id="u" x1="51.21" y1="93.41" x2="163.9" y2="93.41" xlink:href="#d"/><linearGradient id="v" x1="10.57" y1="60.26" x2="79.15" y2="69.63" xlink:href="#i"/><linearGradient id="w" x1="161.69" y1="37.84" x2="30.13" y2="124.66" xlink:href="#a"/><linearGradient id="x" x1="51.21" y1="91.03" x2="163.9" y2="91.03" xlink:href="#d"/><linearGradient id="y" x1="11.77" y1="51.54" x2="80.34" y2="60.92" xlink:href="#i"/></defs><rect class="a" x="3.77" y="3.77" width="120" height="120" rx="10" transform="translate(-4.81 5.2) rotate(-4.5)"/><polygon class="a" points="112.47 48.94 106.7 48.94 100.26 61.83 100.26 77.3 112.47 74.66 112.47 48.94"/><polygon class="b" points="112.47 48.94 106.7 48.94 100.26 61.83 100.26 77.3 112.47 74.66 112.47 48.94"/><polygon class="a" points="46.55 58.71 50.62 58.71 56.97 48.94 44.11 48.94 34.34 58.71 34.34 80.68 36.34 80.68 46.55 64.97 46.55 58.71"/><polygon class="c" points="46.55 58.71 50.62 58.71 56.97 48.94 44.11 48.94 34.34 58.71 34.34 80.68 36.34 80.68 46.55 64.97 46.55 58.71"/><polygon class="a" points="12.37 102.66 22.06 102.66 24.58 98.78 24.58 92.89 12.37 92.89 12.37 102.66"/><polygon class="d" points="12.37 102.66 22.06 102.66 24.58 98.78 24.58 92.89 12.37 92.89 12.37 102.66"/><polygon class="a" points="112.47 102.66 112.47 98.77 112.15 102.66 112.47 102.66"/><polygon class="e" points="112.47 102.66 112.47 98.77 112.15 102.66 112.47 102.66"/><polygon class="a" points="112.47 98.77 112.47 74.66 100.26 77.3 100.26 102.66 112.15 102.66 112.47 98.77"/><polygon class="f" points="112.47 98.77 112.47 74.66 100.26 77.3 100.26 102.66 112.15 102.66 112.47 98.77"/><polygon class="g" points="112.47 98.77 112.47 74.66 100.26 77.3 100.26 102.66 112.15 102.66 112.47 98.77"/><polygon class="a" points="90.5 102.66 90.5 81.39 79.88 102.66 90.5 102.66"/><polygon class="h" points="90.5 102.66 90.5 81.39 79.88 102.66 90.5 102.66"/><polygon class="i" points="90.5 102.66 90.5 81.39 79.88 102.66 90.5 102.66"/><polygon class="a" points="90.5 34.3 78.29 34.3 78.29 35.57 90.5 37.63 90.5 34.3"/><polygon class="j" points="90.5 34.3 78.29 34.3 78.29 35.57 90.5 37.63 90.5 34.3"/><polygon class="a" points="90.5 48.94 90.5 37.63 78.29 35.57 78.29 82.06 90.5 79.41 90.5 58.71 100.26 58.71 100.26 61.83 106.7 48.94 90.5 48.94"/><polygon class="k" points="90.5 48.94 90.5 37.63 78.29 35.57 78.29 82.06 90.5 79.41 90.5 58.71 100.26 58.71 100.26 61.83 106.7 48.94 90.5 48.94"/><polygon class="l" points="90.5 48.94 90.5 37.63 78.29 35.57 78.29 82.06 90.5 79.41 90.5 58.71 100.26 58.71 100.26 61.83 106.7 48.94 90.5 48.94"/><polygon class="a" points="24.58 102.66 24.58 98.78 22.06 102.66 24.58 102.66"/><polygon class="m" points="24.58 102.66 24.58 98.78 22.06 102.66 24.58 102.66"/><polygon class="n" points="24.58 102.66 24.58 98.78 22.06 102.66 24.58 102.66"/><polygon class="a" points="56.32 58.71 56.32 63.59 68.52 63.59 68.52 48.94 56.97 48.94 50.62 58.71 56.32 58.71"/><polygon class="o" points="56.32 58.71 56.32 63.59 68.52 63.59 68.52 48.94 56.97 48.94 50.62 58.71 56.32 58.71"/><polygon class="p" points="56.32 58.71 56.32 63.59 68.52 63.59 68.52 48.94 56.97 48.94 50.62 58.71 56.32 58.71"/><path class="a" d="M56.32,89.62a9.84,9.84,0,0,1,6.27-4.17l5.93-1.28V70.92h-22V65L36.34,80.68h20Z"/><path class="q" d="M56.32,89.62a9.84,9.84,0,0,1,6.27-4.17l5.93-1.28V70.92h-22V65L36.34,80.68h20Z"/><path class="r" d="M56.32,89.62a9.84,9.84,0,0,1,6.27-4.17l5.93-1.28V70.92h-22V65L36.34,80.68h20Z"/><path class="a" d="M54.9,92.89H46.55V88H34.34v14.64H53.67l1-8.69C54.75,93.6,54.82,93.24,54.9,92.89Z"/><path class="s" d="M54.9,92.89H46.55V88H34.34v14.64H53.67l1-8.69C54.75,93.6,54.82,93.24,54.9,92.89Z"/><path class="t" d="M54.9,92.89H46.55V88H34.34v14.64H53.67l1-8.69C54.75,93.6,54.82,93.24,54.9,92.89Z"/><path class="a" d="M56.32,89.62v3.27H54.9c-.08.35-.15.71-.2,1.07l-1,8.69h5.09l9.76-9.76V84.17l-5.93,1.28A9.84,9.84,0,0,0,56.32,89.62Z"/><path class="u" d="M56.32,89.62v3.27H54.9c-.08.35-.15.71-.2,1.07l-1,8.69h5.09l9.76-9.76V84.17l-5.93,1.28A9.84,9.84,0,0,0,56.32,89.62Z"/><path class="v" d="M56.32,89.62v3.27H54.9c-.08.35-.15.71-.2,1.07l-1,8.69h5.09l9.76-9.76V84.17l-5.93,1.28A9.84,9.84,0,0,0,56.32,89.62Z"/><path class="w" d="M56.32,89.62v3.27H54.9c-.08.35-.15.71-.2,1.07l-1,8.69h5.09l9.76-9.76V84.17l-5.93,1.28A9.84,9.84,0,0,0,56.32,89.62Z"/><polygon class="a" points="78.29 102.66 79.88 102.66 90.5 81.39 90.5 79.41 78.29 82.06 78.29 102.66"/><polygon class="x" points="78.29 102.66 79.88 102.66 90.5 81.39 90.5 79.41 78.29 82.06 78.29 102.66"/><polygon class="y" points="78.29 102.66 79.88 102.66 90.5 81.39 90.5 79.41 78.29 82.06 78.29 102.66"/><polygon class="z" points="78.29 102.66 79.88 102.66 90.5 81.39 90.5 79.41 78.29 82.06 78.29 102.66"/></svg>